<svg xmlns="http://www.w3.org/2000/svg" viewBox="0 0 69.14 62.31"><title>&#x8D44;&#x6E90; 183</title><path d="M.05 23.12v-9.09c0-.5-.3-1.22.33-1.47s1 .36 1.4.69Q9.93 19.92 18 26.64c9.33 7.71 18.64 15.45 28 23.1 1.4 1.15 1.49 1.81.09 2.95-3.51 2.88-7 5.78-10.38 8.82-1.28 1.16-2.13 1-3.3 0q-8.85-7.6-17.75-15.13C10.25 42.57 5.81 38.77 1.31 35A3.22 3.22 0 0 1 0 32.21c.09-3.03.05-6.06.05-9.09z" fill="#f98d23"/><path d="M48.45 27a1.74 1.74 0 0 1-.84 1.52c-3.53 3.07-7.1 6.09-10.58 9.21-1 .86-1.58.68-2.45 0q-15.73-13-31.51-26c-1.16-.95-1-1.51.05-2.34C6.87 6.41 10.6 3.48 14.28.49a1.5 1.5 0 0 1 2.29.09Q32 13.47 47.5 26.3c.37.3.79.55.95.7zM69.1 23.24c0 2.75-.06 5.51 0 8.26a3.24 3.24 0 0 1-1.33 2.81q-8.43 7.1-16.77 14.3c-1.06.91-1.79 1.12-3 .08-2.94-2.59-6-5.06-9.07-7.5-1.08-.86-1.18-1.43-.09-2.38q14.31-12.35 28.55-24.75c.4-.35.77-1 1.35-.78s.35 1 .35 1.49c.02 2.82.01 5.64.01 8.47zM67.13 11.31c-.33.35-.58.67-.89.94-5 4.33-9.95 8.65-14.9 13a1.21 1.21 0 0 1-1.91 0c-4.09-3.46-8.22-6.88-12.35-10.25-.83-.68-1.16-1.11-.07-2C41.94 9 46.79 5 51.63.9a1.61 1.61 0 0 1 2.46-.1c4 3.25 8.06 6.42 12.09 9.63.32.25.6.57.95.88z" fill="#db2241"/></svg>