<svg class="dark:hidden" width="162" height="24" viewBox="0 0 162 24" fill="none" xmlns="http://www.w3.org/2000/svg"><path d="M0 22.2804V0H7.84704C10.2853 0 12.3314 0.532331 14.041 1.62538C15.7225 2.69038 17.0115 4.09167 17.8525 5.80121C18.693 7.51074 19.1415 9.30444 19.1415 11.1542C19.1415 13.0321 18.7211 14.8255 17.8525 16.5073C17.0115 18.2168 15.7225 19.59 14.041 20.6831C12.3592 21.7481 10.2853 22.3085 7.84704 22.3085H1.4574C1.03694 22.2804 0.0280526 22.2804 0 22.2804Z" fill="#080808"/><path d="M3.16699 5.01672H11.1262C11.7988 5.01672 12.3592 5.57711 12.3592 6.2497C12.3592 6.92229 11.7988 7.48301 11.1262 7.48301H3.16699V5.01672Z" fill="#3DDC97"/><path d="M3.16699 14.7697H12.9199C13.5925 14.7697 14.1529 15.33 14.1529 16.0026C14.1529 16.6752 13.5925 17.2359 12.9199 17.2359H3.16699V14.7697Z" fill="#F12A1F"/><path d="M3.16699 9.89319H8.68801C9.3606 9.89319 9.92098 10.4536 9.92098 11.1262C9.92098 11.7988 9.3606 12.3595 8.68801 12.3595H3.16699V9.89319Z" fill="#FFB400"/><path d="M39.4802 1.43256V18.3879H37.6229L37.5432 16.2146C37.0695 17.0044 36.4373 17.5972 35.6466 18.0325C34.8558 18.4273 33.9863 18.6647 33.0773 18.6647C31.2989 18.6647 29.8759 18.1112 28.7297 17.0044C27.5844 15.8985 27.031 14.3968 27.031 12.4598C27.031 10.5228 27.5844 8.98164 28.7297 7.91517C29.8759 6.80831 31.2989 6.29427 33.0773 6.29427C33.9863 6.29427 34.8558 6.49221 35.6859 6.92647C36.5161 7.36174 37.1483 7.91517 37.5432 8.70492V1.43256H39.4802ZM33.1965 8.03333C31.9705 8.03333 30.9828 8.42821 30.192 9.17958C29.4023 9.92995 29.0064 10.9974 29.0064 12.381C29.0064 13.7242 29.4023 14.7917 30.192 15.542C30.9828 16.3328 32.0109 16.6883 33.1965 16.6883C34.4215 16.6883 35.4092 16.2934 36.2394 15.4632C37.0301 14.6735 37.4644 13.606 37.4644 12.3012C37.4644 11.0368 37.0695 10.0097 36.2394 9.21897C35.3698 8.46759 34.3821 8.03333 33.1965 8.03333Z" fill="#080808"/><path d="M53.7876 16.4913C53.1948 17.2023 52.4435 17.7163 51.4952 18.0718C50.5468 18.4273 49.5975 18.6253 48.6098 18.6253C46.7526 18.6253 45.2115 18.0718 44.0652 16.9256C42.919 15.7793 42.3262 14.2776 42.3262 12.381C42.3262 10.5631 42.919 9.10079 44.0652 7.91515C45.2115 6.72851 46.7132 6.17609 48.5311 6.17609C50.4671 6.17609 52.0092 6.7689 53.1554 7.99393C54.3007 9.21895 54.736 10.9186 54.538 13.2111H44.3813C44.4995 14.2776 44.9348 15.1471 45.7639 15.8187C46.5547 16.4913 47.5424 16.8074 48.729 16.8074C49.44 16.8074 50.151 16.6882 50.8629 16.4115C51.5739 16.1348 52.1274 15.7793 52.5222 15.3057L53.7876 16.4913ZM52.6414 11.5508C52.602 10.4046 52.2061 9.53505 51.4952 8.90285C50.7842 8.27064 49.7955 7.95454 48.6098 7.95454C47.5424 7.95454 46.5941 8.27064 45.8043 8.90285C45.0135 9.53505 44.5389 10.4046 44.3813 11.5114L52.6414 11.5508Z" fill="#080808"/><path d="M67.9759 16.4913C67.3831 17.2023 66.6317 17.7163 65.6834 18.0718C64.7351 18.4273 63.7868 18.6253 62.7981 18.6253C60.9408 18.6253 59.3997 18.0718 58.2535 16.9256C57.1072 15.7793 56.5144 14.2776 56.5144 12.381C56.5144 10.5631 57.1072 9.10079 58.2535 7.91515C59.3997 6.72851 60.9015 6.17609 62.7193 6.17609C64.6563 6.17609 66.1974 6.7689 67.3437 7.99393C68.4899 9.21895 68.9242 10.9186 68.7272 13.2111H58.5696C58.6877 14.2776 59.123 15.1471 59.9532 15.8187C60.7429 16.4913 61.7316 16.8074 62.9172 16.8074C63.6282 16.8074 64.3402 16.6882 65.0512 16.4115C65.7622 16.1348 66.3156 15.7793 66.7115 15.3057L67.9759 16.4913ZM66.8296 11.5508C66.7902 10.4046 66.3954 9.53505 65.6834 8.90285C64.9724 8.27064 63.9837 7.95454 62.7981 7.95454C61.7316 7.95454 60.7833 8.27064 59.9925 8.90285C59.2018 9.53505 58.7281 10.4046 58.5696 11.5114L66.8296 11.5508Z" fill="#080808"/><path d="M71.4539 6.49215H73.3506L73.4303 8.78364C73.904 7.99389 74.5362 7.36168 75.3663 6.92641C76.1965 6.49215 77.066 6.25482 78.0143 6.25482C79.7534 6.29421 81.1764 6.88703 82.2832 7.99389C83.3891 9.14014 83.9425 10.6025 83.9425 12.4203C83.9425 14.2776 83.3891 15.7793 82.2438 16.9255C81.0976 18.0718 79.6746 18.6252 77.8568 18.6252C76.9479 18.6252 76.0783 18.4273 75.2482 18.0324C74.418 17.6375 73.7858 17.0043 73.3506 16.2146V24H71.4146V6.49215H71.4539ZM80.8209 15.6217C81.6106 14.831 82.0065 13.8039 82.0065 12.4597C82.0065 11.1559 81.6106 10.0884 80.8209 9.33707C80.0301 8.58671 79.0424 8.19082 77.777 8.19082C76.5126 8.19082 75.5249 8.5867 74.7341 9.41685C73.9434 10.2066 73.5879 11.2347 73.5879 12.4991C73.5879 13.7241 73.9828 14.7522 74.7735 15.542C75.5643 16.3721 76.552 16.768 77.777 16.8074C79.0424 16.8074 80.0301 16.4115 80.8209 15.6217Z" fill="#080808"/><path d="M94.5747 9.10079C93.7052 8.31003 92.5983 7.95454 91.2148 7.95454C90.3452 7.95454 89.6342 8.0727 89.0808 8.38881C88.5274 8.70491 88.2507 9.14018 88.2507 9.69361C88.2507 10.6419 89.2788 11.2347 91.2148 11.4721C91.7682 11.5508 92.2428 11.5902 92.5983 11.669C92.9538 11.7488 93.3891 11.8669 93.9021 12.0255C94.4162 12.183 94.811 12.381 95.1271 12.6577C95.4432 12.894 95.6806 13.2505 95.9179 13.6454C96.1552 14.0797 96.234 14.5543 96.234 15.1471C96.234 16.2934 95.72 17.1629 94.7717 17.7951C93.8233 18.4273 92.6377 18.7434 91.2148 18.7434C88.8435 18.7434 87.065 17.9931 85.8794 16.4913L87.0256 15.1077C88.0133 16.3328 89.4363 16.965 91.2935 16.965C92.0843 16.965 92.7953 16.8074 93.3891 16.5307C93.9819 16.254 94.298 15.7793 94.3374 15.1077C94.3374 14.5149 94.1001 14.0797 93.5072 13.8039C92.9144 13.5272 92.1631 13.3293 91.0966 13.2111C90.424 13.1313 89.8312 13.0132 89.3575 12.894C88.8829 12.7759 88.3688 12.5779 87.8952 12.3416C87.3811 12.1043 87.0256 11.7488 86.7489 11.3529C86.4722 10.9186 86.3541 10.4046 86.3541 9.77238C86.3541 8.98162 86.5904 8.27065 87.1044 7.7566C87.6185 7.20317 88.2113 6.8083 88.9223 6.61035C89.6342 6.37302 90.3846 6.29425 91.2148 6.29425C93.072 6.29425 94.5747 6.8083 95.7604 7.87476L94.5747 9.10079Z" fill="#080808"/><path d="M99.9495 7.91515C101.135 6.72851 102.598 6.17609 104.376 6.17609C106.194 6.17609 107.696 6.7689 108.842 7.91515C109.988 9.06039 110.581 10.6025 110.581 12.4598C110.581 14.2776 109.988 15.7399 108.842 16.8862C107.656 18.0324 106.194 18.6253 104.376 18.6253C102.598 18.6253 101.096 18.0324 99.9495 16.8862C98.7639 15.7399 98.2104 14.2382 98.2104 12.4598C98.2104 10.6025 98.7639 9.10079 99.9495 7.91515ZM107.458 9.21895C106.668 8.3888 105.64 7.95454 104.415 7.95454C103.19 7.95454 102.162 8.34941 101.372 9.17956C100.582 10.0097 100.187 11.0762 100.187 12.381C100.187 13.6454 100.582 14.6735 101.372 15.4632C102.162 16.254 103.19 16.6882 104.415 16.6882C105.64 16.6882 106.668 16.2934 107.458 15.4632C108.249 14.6735 108.684 13.606 108.684 12.381C108.644 11.1156 108.249 10.0491 107.458 9.21895Z" fill="#080808"/><path d="M122.753 18.3879L122.674 16.4913C121.647 17.8739 120.264 18.5465 118.525 18.5859C116.984 18.5859 115.718 18.0718 114.77 17.0841C113.822 16.0954 113.347 14.7523 113.347 13.0132V6.41241H115.323V13.0132C115.323 14.1594 115.639 15.0684 116.272 15.74C116.905 16.4115 117.814 16.7287 118.92 16.7287C119.987 16.7287 120.896 16.3328 121.568 15.5824C122.24 14.831 122.596 13.9221 122.596 12.8152V6.41241H124.572V18.3879H122.753Z" fill="#080808"/><path d="M130.065 6.41243L130.224 8.19088C130.935 6.88709 132.16 6.2155 133.899 6.2155C134.966 6.17611 135.875 6.49222 136.666 7.12442L135.757 8.8241C135.125 8.38883 134.452 8.1515 133.662 8.1515C132.674 8.1515 131.844 8.508 131.172 9.1402C130.5 9.81179 130.145 10.6419 130.145 11.7084V18.3486H128.168V6.41243H130.065Z" fill="#080808"/><path d="M148.127 16.768C146.902 17.993 145.4 18.6252 143.662 18.6252C141.883 18.6252 140.421 18.0718 139.195 16.9649C138.009 15.8591 137.416 14.3563 137.416 12.4203C137.416 10.4833 138.009 8.9816 139.195 7.87474C140.38 6.76889 141.883 6.21545 143.662 6.21545C145.321 6.21545 146.783 6.80827 148.008 7.99391L146.744 9.2977C145.914 8.50795 144.926 8.07268 143.701 8.07268C142.476 8.07268 141.448 8.46756 140.657 9.25831C139.828 10.0491 139.432 11.0762 139.432 12.381C139.432 13.7241 139.828 14.7916 140.657 15.542C141.487 16.2934 142.476 16.6882 143.701 16.6882C144.965 16.6882 145.993 16.254 146.823 15.4238L148.127 16.768Z" fill="#080808"/><path d="M161.091 16.4913C160.498 17.2023 159.746 17.7163 158.798 18.0718C157.85 18.4273 156.902 18.6253 155.913 18.6253C154.056 18.6253 152.514 18.0718 151.368 16.9256C150.222 15.7793 149.629 14.2776 149.629 12.381C149.629 10.5631 150.222 9.10079 151.368 7.91515C152.514 6.72851 154.016 6.17609 155.834 6.17609C157.771 6.17609 159.312 6.7689 160.458 7.99393C161.605 9.21895 162.039 10.9186 161.841 13.2111H151.684C151.802 14.2776 152.238 15.1471 153.068 15.8187C153.858 16.4913 154.846 16.8074 156.032 16.8074C156.743 16.8074 157.455 16.6882 158.166 16.4115C158.877 16.1348 159.43 15.7793 159.826 15.3057L161.091 16.4913ZM159.944 11.5508C159.905 10.4046 159.51 9.53505 158.798 8.90285C158.087 8.27064 157.098 7.95454 155.913 7.95454C154.846 7.95454 153.897 8.27064 153.107 8.90285C152.317 9.53505 151.842 10.4046 151.684 11.5114L159.944 11.5508Z" fill="#080808"/></svg>