<?xml version="1.0" encoding="UTF-8"?>
<svg version="1.1" xmlns="http://www.w3.org/2000/svg" width="256" height="256">
<path d="M0 0 C0.8880273 -0.0055344 1.7760546 -0.01106879 2.69099182 -0.0167709 C5.64893423 -0.03031947 8.60602436 -0.01543972 11.56394958 -0.00050354 C13.69167945 -0.00428879 15.81940686 -0.00979052 17.9471283 -0.01687622 C23.7135747 -0.03082026 29.47972239 -0.0196686 35.24615216 -0.00316501 C41.28469904 0.01070016 47.32322883 0.0042238 53.36178589 0.0007019 C63.5006745 -0.00199884 73.63944463 0.01146454 83.77830505 0.03465271 C95.49700016 0.06126868 107.21549729 0.06300671 118.93421227 0.05126435 C130.21309411 0.04048255 141.4919044 0.04667636 152.77078056 0.06081963 C157.5684726 0.06657519 162.36611221 0.06650011 167.16380501 0.06175423 C172.81341881 0.05697938 178.462816 0.06710741 184.11238861 0.08870888 C186.18480893 0.09426969 188.25725009 0.09474853 190.32967186 0.08975601 C193.16028794 0.08379249 195.9902441 0.09632896 198.82080078 0.11352539 C199.63928971 0.10751535 200.45777865 0.1015053 201.30107027 0.09531313 C207.09990984 0.15929774 212.04344908 1.08746454 216.58909607 5.00120544 C219.7806359 9.22724439 220.96921665 12.06104329 220.98735046 17.30133057 C220.99306061 18.28965378 220.99877075 19.27797699 221.00465393 20.29624939 C221.00633072 21.92101196 221.00633072 21.92101196 221.00804138 23.57859802 C221.01300629 24.72031967 221.01797119 25.86204132 221.02308655 27.0383606 C221.03771946 30.82415871 221.04451204 34.60991492 221.05003357 38.39573669 C221.05578404 41.0226644 221.06154178 43.6495921 221.06730652 46.27651978 C221.07687716 51.08382815 221.0827744 55.89112746 221.08580327 60.69844419 C221.09028234 67.76817164 221.10782428 74.83770558 221.13680387 81.9073742 C221.16104912 88.03535442 221.16874876 94.16325491 221.17047882 100.29128075 C221.17350766 102.89599854 221.18154392 105.50071548 221.194664 108.10540199 C221.21170696 111.74896043 221.2098482 115.39204722 221.20335388 119.03562927 C221.21256866 120.11273163 221.22178345 121.18983398 221.23127747 122.29957581 C221.19623962 128.57074892 220.73288215 133.2612191 216.38206482 138.14573669 C210.68497524 142.66411808 206.26947855 142.64995613 199.18156433 142.64837646 C198.2976603 142.65205315 197.41375626 142.65572984 196.50306726 142.65951794 C193.53531839 142.67054862 190.56760455 142.67439757 187.59983826 142.6782074 C185.47432341 142.68447245 183.34880967 142.69111929 181.22329712 142.69812012 C174.23846702 142.71915571 167.25363671 142.72952118 160.26878357 142.73948669 C157.86432636 142.74353426 155.45986927 142.74765118 153.05541229 142.75183678 C141.76053 142.77088634 130.46565423 142.78511859 119.17075896 142.79344875 C106.13104558 142.8032245 93.09150179 142.82955399 80.05184817 142.86994964 C69.97359279 142.90010037 59.89538607 142.91491659 49.81708646 142.91822976 C43.79731552 142.92058118 37.77772582 142.92955409 31.75800323 142.95469093 C26.09448361 142.9779586 20.43126475 142.98220998 14.76770973 142.97192955 C12.69085757 142.97143379 10.61399067 142.97776612 8.53718376 142.9914856 C5.69782499 143.00919082 2.8595472 143.00210493 0.02018738 142.98895264 C-0.79811719 142.99992188 -1.61642176 143.01089113 -2.45952344 143.02219278 C-8.07765427 142.95953202 -12.49002294 141.72264547 -17.15309143 138.50120544 C-21.9169241 132.67337552 -21.72519765 127.11505839 -21.67066956 119.80198669 C-21.67767883 118.64178009 -21.68468811 117.48157349 -21.69190979 116.28620911 C-21.70947456 112.46179575 -21.69787146 108.63812597 -21.68434143 104.81370544 C-21.68703676 102.15004053 -21.69091374 99.48639796 -21.69593811 96.82273865 C-21.70320229 91.24445075 -21.69365938 85.66637513 -21.67457581 80.08811951 C-21.65280915 73.65150979 -21.65986141 67.21540699 -21.68188143 60.77880955 C-21.70007076 55.23885816 -21.70257661 49.6990588 -21.69212675 44.15908718 C-21.68591106 40.85624959 -21.68658795 37.55370062 -21.69827271 34.25086975 C-21.70844563 30.56704068 -21.69292462 26.88418117 -21.67066956 23.20042419 C-21.67876648 22.11449982 -21.6868634 21.02857544 -21.69520569 19.90974426 C-21.6245585 13.58865002 -21.21716374 9.47298424 -17.15309143 4.50120544 C-11.64660011 0.70027243 -6.5534707 -0.07711546 0 0 Z " fill="#35C1F0" transform="translate(28.153091430664063,56.49879455566406)"/>
<path d="M0 0 C17.675625 -0.061875 35.35125 -0.12375 53.5625 -0.1875 C59.13713135 -0.21481201 64.7117627 -0.24212402 70.45532227 -0.27026367 C77.2791748 -0.28381348 77.2791748 -0.28381348 80.47691345 -0.28633118 C82.70329081 -0.2909284 84.92966084 -0.30145992 87.1559906 -0.31672668 C90.53454504 -0.33873023 93.91264426 -0.34171652 97.29125977 -0.34057617 C98.77115434 -0.35676766 98.77115434 -0.35676766 100.28094578 -0.37328625 C106.57405931 -0.34490966 111.78464221 0.2316202 116.7421875 4.5 C119.93372733 8.72603895 121.12230808 11.55983785 121.14044189 16.80012512 C121.14615204 17.78844833 121.15186218 18.77677155 121.15774536 19.79504395 C121.15942215 21.41980652 121.15942215 21.41980652 121.16113281 23.07739258 C121.16858017 24.78997505 121.16858017 24.78997505 121.17617798 26.53715515 C121.19081089 30.32295326 121.19760347 34.10870948 121.203125 37.89453125 C121.20887547 40.52145896 121.21463321 43.14838665 121.22039795 45.77531433 C121.22996859 50.5826227 121.23586583 55.38992202 121.2388947 60.19723874 C121.24337377 67.26696619 121.26091571 74.33650014 121.2898953 81.40616876 C121.31414055 87.53414898 121.32184019 93.66204947 121.32357025 99.7900753 C121.32659909 102.3947931 121.33463535 104.99951003 121.34775543 107.60419655 C121.36479839 111.24775498 121.36293963 114.89084177 121.35644531 118.53442383 C121.3656601 119.61152618 121.37487488 120.68862854 121.3843689 121.79837036 C121.34933105 128.06954347 120.88597358 132.76001366 116.53515625 137.64453125 C112.05095338 141.20096801 109.0353486 142.12678529 103.41888428 142.12025452 C102.05038141 142.12232076 102.05038141 142.12232076 100.65423203 142.12442875 C99.65684132 142.12083064 98.65945061 142.11723253 97.63183594 142.11352539 C96.56083775 142.11364593 95.48983955 142.11376646 94.38638687 142.11389065 C90.91902847 142.11314417 87.45172379 142.1055279 83.984375 142.09765625 C81.84391302 142.09618601 79.70345069 142.09516581 77.56298828 142.09460449 C69.62532004 142.08936108 61.68765949 142.0753999 53.75 142.0625 C27.14375 142.0315625 27.14375 142.0315625 0 142 C0 95.14 0 48.28 0 0 Z " fill="#006CBE" transform="translate(128,57)"/>
<path d="M0 0 C0 46.86 0 93.72 0 142 C-47 142 -47 142 -55 138 C-59.76383267 132.17217008 -59.57210622 126.61385295 -59.51757812 119.30078125 C-59.5245874 118.14057465 -59.53159668 116.98036804 -59.53881836 115.78500366 C-59.55638313 111.9605903 -59.54478003 108.13692053 -59.53125 104.3125 C-59.53394533 101.64883509 -59.53782231 98.98519252 -59.54284668 96.3215332 C-59.55011086 90.74324531 -59.54056795 85.16516968 -59.52148438 79.58691406 C-59.49971772 73.15030435 -59.50676998 66.71420154 -59.52879 60.2776041 C-59.54697933 54.73765271 -59.54948518 49.19785336 -59.53903532 43.65788174 C-59.53281963 40.35504415 -59.53349652 37.05249518 -59.54518127 33.74966431 C-59.5553542 30.06583524 -59.53983319 26.38297573 -59.51757812 22.69921875 C-59.52567505 21.61329437 -59.53377197 20.52737 -59.54211426 19.40853882 C-59.47146707 13.08744457 -59.06407231 8.97177879 -55 4 C-38.55885919 -4.2205704 -18.38175424 0 0 0 Z " fill="#4FE5FE" transform="translate(66,57)"/>
<path d="M0 0 C49.515625 0 49.515625 0 54.7421875 4.5 C57.93372733 8.72603895 59.12230808 11.55983785 59.14044189 16.80012512 C59.14615204 17.78844833 59.15186218 18.77677155 59.15774536 19.79504395 C59.15886322 20.87821899 59.15998108 21.96139404 59.16113281 23.07739258 C59.16858017 24.78997505 59.16858017 24.78997505 59.17617798 26.53715515 C59.19081089 30.32295326 59.19760347 34.10870948 59.203125 37.89453125 C59.20887547 40.52145896 59.21463321 43.14838665 59.22039795 45.77531433 C59.22996859 50.5826227 59.23586583 55.38992202 59.2388947 60.19723874 C59.24337377 67.26696619 59.26091571 74.33650014 59.2898953 81.40616876 C59.31414055 87.53414898 59.32184019 93.66204947 59.32357025 99.7900753 C59.32659909 102.3947931 59.33463535 104.99951003 59.34775543 107.60419655 C59.36479839 111.24775498 59.36293963 114.89084177 59.35644531 118.53442383 C59.37026749 120.15007736 59.37026749 120.15007736 59.3843689 121.79837036 C59.34933105 128.06954347 58.88597358 132.76001366 54.53515625 137.64453125 C39.80692247 149.32554425 16.24728926 142 0 142 C0 95.14 0 48.28 0 0 Z " fill="#184F85" transform="translate(190,57)"/>
</svg>
