<?xml version="1.0" encoding="UTF-8"?>
<svg id="Layer_2" data-name="Layer 2" xmlns="http://www.w3.org/2000/svg" viewBox="0 0 69.16 62.32">
  <defs>
    <style>
      .cls-1 {
        fill: #e78184;
      }

      .cls-1, .cls-2 {
        stroke-width: 0px;
      }

      .cls-2 {
        fill: #ef9f77;
      }
    </style>
  </defs>
  <g id="Layer_1-2" data-name="Layer 1">
    <path class="cls-2" d="m.07,23.12v-9.09c0-.5-.3-1.22.33-1.47.63-.25,1,.36,1.4.69,5.43,4.45,10.84,8.91,16.22,13.39,9.33,7.71,18.64,15.45,28,23.1,1.4,1.15,1.49,1.81.09,2.95-3.51,2.88-7,5.78-10.38,8.82-1.28,1.16-2.13,1-3.3,0-5.9-5.07-11.82-10.11-17.75-15.13-4.41-3.81-8.85-7.61-13.35-11.38-.88-.65-1.38-1.7-1.31-2.79.09-3.03.05-6.06.05-9.09Z"/>
    <path class="cls-1" d="m48.47,27c.01.62-.31,1.2-.84,1.52-3.53,3.07-7.1,6.09-10.58,9.21-1,.86-1.58.68-2.45,0C24.11,29.06,13.61,20.39,3.09,11.73c-1.16-.95-1-1.51.05-2.34C6.89,6.41,10.62,3.48,14.3.49c.56-.61,1.51-.65,2.12-.09.06.06.12.12.17.18,10.29,8.59,20.6,17.17,30.93,25.72.37.3.79.55.95.7Zm20.65-3.76c0,2.75-.06,5.51,0,8.26.06,1.1-.44,2.16-1.33,2.81-5.62,4.73-11.21,9.5-16.77,14.3-1.06.91-1.79,1.12-3,.08-2.94-2.59-6-5.06-9.07-7.5-1.08-.86-1.18-1.43-.09-2.38,9.54-8.23,19.06-16.48,28.55-24.75.4-.35.77-1,1.35-.78s.35,1,.35,1.49c.02,2.82.01,5.64.01,8.47Zm-1.97-11.93c-.33.35-.58.67-.89.94-5,4.33-9.95,8.65-14.9,13-.41.53-1.17.62-1.7.21-.08-.06-.15-.13-.21-.21-4.09-3.46-8.22-6.88-12.35-10.25-.83-.68-1.16-1.11-.07-2,4.93-4,9.78-8,14.62-12.1.54-.7,1.56-.83,2.26-.29.07.06.14.12.2.19,4,3.25,8.06,6.42,12.09,9.63.32.25.6.57.95.88Z"/>
  </g>
</svg>